{"asset":{"version":"2.0","generator":"babylon.js glTF exporter for 3ds max 2015 v1.3.32"},"scene":0,"scenes":[{"nodes":[0,1,2,3,4,5,6,7],"extensions":{}}],"nodes":[{"mesh":0,"translation":[0.0,0.0,0.0],"rotation":[0.0,0.0,0.0,1.0],"scale":[1.0,1.0,1.0],"name":"ChestZone"},{"mesh":1,"translation":[0.0,0.0,0.0],"rotation":[0.0,0.0,0.0,1.0],"scale":[1.0,1.0,1.0],"name":"NoZone"},{"mesh":2,"translation":[0.0,0.0,0.0],"rotation":[0.0,0.0,0.0,1.0],"scale":[1.0,1.0,1.0],"name":"LBLegZone"},{"mesh":3,"translation":[0.0,0.0,0.0],"rotation":[0.0,0.0,0.0,1.0],"scale":[1.0,1.0,1.0],"name":"RBLegZone"},{"mesh":4,"translation":[0.0,0.0,0.0],"rotation":[0.0,0.0,0.0,1.0],"scale":[1.0,1.0,1.0],"name":"TailZone"},{"mesh":5,"translation":[0.0,0.0,0.0],"rotation":[0.0,0.0,0.0,1.0],"scale":[1.0,1.0,1.0],"name":"LFLegZone"},{"mesh":6,"translation":[0.0,0.0,0.0],"rotation":[0.0,0.0,0.0,1.0],"scale":[1.0,1.0,1.0],"name":"RFLegZone"},{"translation":[0.0,0.0,0.0],"rotation":[0.0,0.0,0.0,1.0],"scale":[1.0,1.0,1.0],"name":"Default light"}],"meshes":[{"primitives":[{"attributes":{"POSITION":1,"NORMAL":2,"TEXCOORD_0":3},"indices":0,"mode":4,"material":0}],"name":"ChestZone"},{"primitives":[{"attributes":{"POSITION":5,"NORMAL":6,"TEXCOORD_0":7},"indices":4,"mode":4,"material":0},{"attributes":{"POSITION":9,"NORMAL":10,"TEXCOORD_0":11},"indices":8,"mode":4,"material":1},{"attributes":{"POSITION":13,"NORMAL":14,"TEXCOORD_0":15},"indices":12,"mode":4,"material":2}],"name":"NoZone"},{"primitives":[{"attributes":{"POSITION":17,"NORMAL":18,"TEXCOORD_0":19},"indices":16,"mode":4,"material":0}],"name":"LBLegZone"},{"primitives":[{"attributes":{"POSITION":21,"NORMAL":22,"TEXCOORD_0":23},"indices":20,"mode":4,"material":0}],"name":"RBLegZone"},{"primitives":[{"attributes":{"POSITION":25,"NORMAL":26,"TEXCOORD_0":27},"indices":24,"mode":4,"material":0}],"name":"TailZone"},{"primitives":[{"attributes":{"POSITION":29,"NORMAL":30,"TEXCOORD_0":31},"indices":28,"mode":4,"material":0}],"name":"LFLegZone"},{"primitives":[{"attributes":{"POSITION":33,"NORMAL":34,"TEXCOORD_0":35},"indices":32,"mode":4,"material":0}],"name":"RFLegZone"}],"accessors":[{"bufferView":0,"componentType":5123,"count":4932,"type":"SCALAR","name":"accessorIndices"},{"bufferView":1,"componentType":5126,"count":4932,"max":[16.4042282,75.16118,39.0387],"min":[-16.4042225,28.7290039,-60.3487],"type":"VEC3","name":"accessorPositions"},{"bufferView":1,"byteOffset":59184,"componentType":5126,"count":4932,"type":"VEC3","name":"accessorNormals"},{"bufferView":2,"componentType":5126,"count":4932,"type":"VEC2","name":"accessorUVs"},{"bufferView":0,"byteOffset":9864,"componentType":5125,"count":93327,"type":"SCALAR","name":"accessorIndices"},{"bufferView":1,"byteOffset":118368,"componentType":5126,"count":93327,"max":[25.69447,90.277565,57.07032],"min":[-23.3472557,10.762413,-99.1108],"type":"VEC3","name":"accessorPositions"},{"bufferView":1,"byteOffset":1238292,"componentType":5126,"count":93327,"type":"VEC3","name":"accessorNormals"},{"bufferView":2,"byteOffset":39456,"componentType":5126,"count":93327,"type":"VEC2","name":"accessorUVs"},{"bufferView":0,"byteOffset":383172,"componentType":5125,"count":26256,"type":"SCALAR","name":"accessorIndices"},{"bufferView":1,"byteOffset":2358216,"componentType":5126,"count":26256,"max":[30.2318783,73.98383,25.6586246],"min":[-18.566103,31.2424011,-59.23925],"type":"VEC3","name":"accessorPositions"},{"bufferView":1,"byteOffset":2673288,"componentType":5126,"count":26256,"type":"VEC3","name":"accessorNormals"},{"bufferView":2,"byteOffset":786072,"componentType":5126,"count":26256,"type":"VEC2","name":"accessorUVs"},{"bufferView":0,"byteOffset":488196,"componentType":5125,"count":3957,"type":"SCALAR","name":"accessorIndices"},{"bufferView":1,"byteOffset":2988360,"componentType":5126,"count":3957,"max":[32.08082,53.016552,-4.398631],"min":[24.7759418,37.5284576,-10.3255],"type":"VEC3","name":"accessorPositions"},{"bufferView":1,"byteOffset":3035844,"componentType":5126,"count":3957,"type":"VEC3","name":"accessorNormals"},{"bufferView":2,"byteOffset":996120,"componentType":5126,"count":3957,"type":"VEC2","name":"accessorUVs"},{"bufferView":0,"byteOffset":504024,"componentType":5123,"count":5928,"type":"SCALAR","name":"accessorIndices"},{"bufferView":1,"byteOffset":3083328,"componentType":5126,"count":5928,"max":[-1.09384191,49.56386,46.7902031],"min":[-16.5468369,-0.727422237,20.0282879],"type":"VEC3","name":"accessorPositions"},{"bufferView":1,"byteOffset":3154464,"componentType":5126,"count":5928,"type":"VEC3","name":"accessorNormals"},{"bufferView":2,"byteOffset":1027776,"componentType":5126,"count":5928,"type":"VEC2","name":"accessorUVs"},{"bufferView":0,"byteOffset":515880,"componentType":5123,"count":5928,"type":"SCALAR","name":"accessorIndices"},{"bufferView":1,"byteOffset":3225600,"componentType":5126,"count":5928,"max":[16.5468025,49.56386,46.7902031],"min":[1.09382176,-0.7274252,20.0282974],"type":"VEC3","name":"accessorPositions"},{"bufferView":1,"byteOffset":3296736,"componentType":5126,"count":5928,"type":"VEC3","name":"accessorNormals"},{"bufferView":2,"byteOffset":1075200,"componentType":5126,"count":5928,"type":"VEC2","name":"accessorUVs"},{"bufferView":0,"byteOffset":527736,"componentType":5123,"count":7872,"type":"SCALAR","name":"accessorIndices"},{"bufferView":1,"byteOffset":3367872,"componentType":5126,"count":7872,"max":[9.73845,54.98834,170.431671],"min":[-9.738546,36.2968674,37.323658],"type":"VEC3","name":"accessorPositions"},{"bufferView":1,"byteOffset":3462336,"componentType":5126,"count":7872,"type":"VEC3","name":"accessorNormals"},{"bufferView":2,"byteOffset":1122624,"componentType":5126,"count":7872,"type":"VEC2","name":"accessorUVs"},{"bufferView":0,"byteOffset":543480,"componentType":5123,"count":6696,"type":"SCALAR","name":"accessorIndices"},{"bufferView":1,"byteOffset":3556800,"componentType":5126,"count":6696,"max":[-8.372673,73.2930756,-2.808125],"min":[-28.4142265,-2.01154828,-45.3677559],"type":"VEC3","name":"accessorPositions"},{"bufferView":1,"byteOffset":3637152,"componentType":5126,"count":6696,"type":"VEC3","name":"accessorNormals"},{"bufferView":2,"byteOffset":1185600,"componentType":5126,"count":6696,"type":"VEC2","name":"accessorUVs"},{"bufferView":0,"byteOffset":556872,"componentType":5123,"count":6696,"type":"SCALAR","name":"accessorIndices"},{"bufferView":1,"byteOffset":3717504,"componentType":5126,"count":6696,"max":[28.414238,73.29307,-2.80811429],"min":[8.372686,-2.01155424,-45.3677444],"type":"VEC3","name":"accessorPositions"},{"bufferView":1,"byteOffset":3797856,"componentType":5126,"count":6696,"type":"VEC3","name":"accessorNormals"},{"bufferView":2,"byteOffset":1239168,"componentType":5126,"count":6696,"type":"VEC2","name":"accessorUVs"}],"bufferViews":[{"buffer":0,"byteLength":570264,"name":"bufferViewScalar"},{"buffer":0,"byteOffset":570264,"byteLength":3878208,"byteStride":12,"name":"bufferViewFloatVec3"},{"buffer":0,"byteOffset":4448472,"byteLength":1292736,"byteStride":8,"name":"bufferViewFloatVec2"}],"buffers":[{"uri":"Zones.bin","byteLength":5741208}],"materials":[{"pbrMetallicRoughness":{"baseColorFactor":[1.0,1.0,1.0,1.0],"baseColorTexture":{"index":0,"texCoord":0},"metallicFactor":0.0,"roughnessFactor":0.9},"emissiveFactor":[0.0,0.0,0.0],"name":"Material #151"},{"pbrMetallicRoughness":{"baseColorFactor":[1.0,1.0,1.0,1.0],"baseColorTexture":{"index":1,"texCoord":0},"metallicFactor":0.0,"roughnessFactor":0.9},"emissiveFactor":[0.0,0.0,0.0],"name":"Material #153"},{"pbrMetallicRoughness":{"baseColorFactor":[1.0,1.0,1.0,1.0],"baseColorTexture":{"index":1,"texCoord":0},"metallicFactor":0.0,"roughnessFactor":0.9},"emissiveFactor":[0.0,0.0,0.0],"name":"Material #152"}],"textures":[{"sampler":0,"source":0,"name":"T_Boss_BaseColor.png"},{"sampler":0,"source":1,"name":"Diffuse.png"},{"sampler":0,"source":1,"name":"Diffuse.png"}],"images":[{"uri":"T_Boss_BaseColor.png"},{"uri":"Diffuse.png"}],"samplers":[{"magFilter":9729,"minFilter":9987,"wrapS":10497,"wrapT":10497}]}