{"asset":{"version":"2.0","generator":"babylon.js glTF exporter for 3ds max 2015 v1.3.33"},"scene":0,"scenes":[{"nodes":[0,10],"extensions":{}}],"nodes":[{"children":[1,2,3,4,5,6,7,8,9],"translation":[0.0,0.0,0.0],"rotation":[0.0,0.0,0.0,1.0],"scale":[1.0,1.0,1.0],"name":"Dummy001"},{"mesh":0,"translation":[0.0,0.0,0.0],"rotation":[0.0,0.0,0.0,1.0],"scale":[1.0,1.0,1.0],"name":"NoZone"},{"mesh":1,"translation":[0.0,0.0,0.0],"rotation":[0.0,0.0,0.0,1.0],"scale":[1.0,1.0,1.0],"name":"EarringZone"},{"mesh":2,"translation":[0.0,0.0,0.0],"rotation":[0.0,0.0,0.0,1.0],"scale":[1.0,1.0,1.0],"name":"TailZone"},{"mesh":3,"translation":[0.0,0.0,0.0],"rotation":[0.0,0.0,0.0,1.0],"scale":[1.0,1.0,1.0],"name":"ChestZone"},{"mesh":4,"translation":[0.0,0.0,0.0],"rotation":[0.0,0.0,0.0,1.0],"scale":[1.0,1.0,1.0],"name":"FeatherZone"},{"mesh":5,"translation":[0.0,0.0,0.0],"rotation":[0.0,0.0,0.0,1.0],"scale":[1.0,1.0,1.0],"name":"LFLegZone"},{"mesh":6,"translation":[0.0,0.0,0.0],"rotation":[0.0,0.0,0.0,1.0],"scale":[1.0,1.0,1.0],"name":"LBLegZone"},{"mesh":7,"translation":[0.0,0.0,0.0],"rotation":[0.0,0.0,0.0,1.0],"scale":[1.0,1.0,1.0],"name":"RBLegZone"},{"mesh":8,"translation":[0.0,0.0,0.0],"rotation":[0.0,0.0,0.0,1.0],"scale":[1.0,1.0,1.0],"name":"RFLegZone"},{"translation":[0.0,0.0,0.0],"rotation":[0.0,0.0,0.0,1.0],"scale":[1.0,1.0,1.0],"name":"Default light"}],"meshes":[{"primitives":[{"attributes":{"POSITION":1,"NORMAL":2,"TEXCOORD_0":3},"indices":0,"mode":4,"material":0}],"name":"NoZone"},{"primitives":[{"attributes":{"POSITION":5,"NORMAL":6,"TEXCOORD_0":7},"indices":4,"mode":4,"material":1}],"name":"EarringZone"},{"primitives":[{"attributes":{"POSITION":9,"NORMAL":10,"TEXCOORD_0":11},"indices":8,"mode":4,"material":0}],"name":"TailZone"},{"primitives":[{"attributes":{"POSITION":13,"NORMAL":14,"TEXCOORD_0":15},"indices":12,"mode":4,"material":0}],"name":"ChestZone"},{"primitives":[{"attributes":{"POSITION":17,"NORMAL":18,"TEXCOORD_0":19},"indices":16,"mode":4,"material":2}],"name":"FeatherZone"},{"primitives":[{"attributes":{"POSITION":21,"NORMAL":22,"TEXCOORD_0":23},"indices":20,"mode":4,"material":0}],"name":"LFLegZone"},{"primitives":[{"attributes":{"POSITION":25,"NORMAL":26,"TEXCOORD_0":27},"indices":24,"mode":4,"material":0}],"name":"LBLegZone"},{"primitives":[{"attributes":{"POSITION":29,"NORMAL":30,"TEXCOORD_0":31},"indices":28,"mode":4,"material":0}],"name":"RBLegZone"},{"primitives":[{"attributes":{"POSITION":33,"NORMAL":34,"TEXCOORD_0":35},"indices":32,"mode":4,"material":0}],"name":"RFLegZone"}],"accessors":[{"bufferView":0,"componentType":5125,"count":72810,"type":"SCALAR","name":"accessorIndices"},{"bufferView":1,"componentType":5126,"count":72810,"max":[20.07092,79.50584,57.07032],"min":[-20.0709076,10.762413,-99.1108],"type":"VEC3","name":"accessorPositions"},{"bufferView":1,"byteOffset":873720,"componentType":5126,"count":72810,"type":"VEC3","name":"accessorNormals"},{"bufferView":2,"componentType":5126,"count":72810,"type":"VEC2","name":"accessorUVs"},{"bufferView":0,"byteOffset":291240,"componentType":5123,"count":2616,"type":"SCALAR","name":"accessorIndices"},{"bufferView":1,"byteOffset":1747440,"componentType":5126,"count":2616,"max":[18.5661049,46.119812,-47.1478],"min":[-18.566103,36.8631363,-59.23925],"type":"VEC3","name":"accessorPositions"},{"bufferView":1,"byteOffset":1778832,"componentType":5126,"count":2616,"type":"VEC3","name":"accessorNormals"},{"bufferView":2,"byteOffset":582480,"componentType":5126,"count":2616,"type":"VEC2","name":"accessorUVs"},{"bufferView":0,"byteOffset":296472,"componentType":5123,"count":7872,"type":"SCALAR","name":"accessorIndices"},{"bufferView":1,"byteOffset":1810224,"componentType":5126,"count":7872,"max":[9.73845,54.98834,170.431671],"min":[-9.738546,36.2968674,37.323658],"type":"VEC3","name":"accessorPositions"},{"bufferView":1,"byteOffset":1904688,"componentType":5126,"count":7872,"type":"VEC3","name":"accessorNormals"},{"bufferView":2,"byteOffset":603408,"componentType":5126,"count":7872,"type":"VEC2","name":"accessorUVs"},{"bufferView":0,"byteOffset":312216,"componentType":5123,"count":25446,"type":"SCALAR","name":"accessorIndices"},{"bufferView":1,"byteOffset":1999152,"componentType":5126,"count":25446,"max":[23.3472519,90.277565,39.0387],"min":[-23.3472557,28.7290039,-60.3487],"type":"VEC3","name":"accessorPositions"},{"bufferView":1,"byteOffset":2304504,"componentType":5126,"count":25446,"type":"VEC3","name":"accessorNormals"},{"bufferView":2,"byteOffset":666384,"componentType":5126,"count":25446,"type":"VEC2","name":"accessorUVs"},{"bufferView":0,"byteOffset":363108,"componentType":5123,"count":31320,"type":"SCALAR","name":"accessorIndices"},{"bufferView":1,"byteOffset":2609856,"componentType":5126,"count":31320,"max":[29.2037983,94.6109543,4.862365],"min":[-29.20381,38.6523552,-59.2158928],"type":"VEC3","name":"accessorPositions"},{"bufferView":1,"byteOffset":2985696,"componentType":5126,"count":31320,"type":"VEC3","name":"accessorNormals"},{"bufferView":2,"byteOffset":869952,"componentType":5126,"count":31320,"type":"VEC2","name":"accessorUVs"},{"bufferView":0,"byteOffset":425748,"componentType":5123,"count":6696,"type":"SCALAR","name":"accessorIndices"},{"bufferView":1,"byteOffset":3361536,"componentType":5126,"count":6696,"max":[-8.372673,73.2930756,-2.808125],"min":[-28.4142265,-2.01154828,-45.3677559],"type":"VEC3","name":"accessorPositions"},{"bufferView":1,"byteOffset":3441888,"componentType":5126,"count":6696,"type":"VEC3","name":"accessorNormals"},{"bufferView":2,"byteOffset":1120512,"componentType":5126,"count":6696,"type":"VEC2","name":"accessorUVs"},{"bufferView":0,"byteOffset":439140,"componentType":5123,"count":5928,"type":"SCALAR","name":"accessorIndices"},{"bufferView":1,"byteOffset":3522240,"componentType":5126,"count":5928,"max":[-1.09384191,49.56386,46.7902031],"min":[-16.5468369,-0.727422237,20.0282879],"type":"VEC3","name":"accessorPositions"},{"bufferView":1,"byteOffset":3593376,"componentType":5126,"count":5928,"type":"VEC3","name":"accessorNormals"},{"bufferView":2,"byteOffset":1174080,"componentType":5126,"count":5928,"type":"VEC2","name":"accessorUVs"},{"bufferView":0,"byteOffset":450996,"componentType":5123,"count":5928,"type":"SCALAR","name":"accessorIndices"},{"bufferView":1,"byteOffset":3664512,"componentType":5126,"count":5928,"max":[16.5468025,49.56386,46.7902031],"min":[1.09382176,-0.7274252,20.0282974],"type":"VEC3","name":"accessorPositions"},{"bufferView":1,"byteOffset":3735648,"componentType":5126,"count":5928,"type":"VEC3","name":"accessorNormals"},{"bufferView":2,"byteOffset":1221504,"componentType":5126,"count":5928,"type":"VEC2","name":"accessorUVs"},{"bufferView":0,"byteOffset":462852,"componentType":5123,"count":6696,"type":"SCALAR","name":"accessorIndices"},{"bufferView":1,"byteOffset":3806784,"componentType":5126,"count":6696,"max":[28.414238,73.29307,-2.80811429],"min":[8.372686,-2.01155424,-45.3677444],"type":"VEC3","name":"accessorPositions"},{"bufferView":1,"byteOffset":3887136,"componentType":5126,"count":6696,"type":"VEC3","name":"accessorNormals"},{"bufferView":2,"byteOffset":1268928,"componentType":5126,"count":6696,"type":"VEC2","name":"accessorUVs"}],"bufferViews":[{"buffer":0,"byteLength":476244,"name":"bufferViewScalar"},{"buffer":0,"byteOffset":476244,"byteLength":3967488,"byteStride":12,"name":"bufferViewFloatVec3"},{"buffer":0,"byteOffset":4443732,"byteLength":1322496,"byteStride":8,"name":"bufferViewFloatVec2"}],"buffers":[{"uri":"Boss.bin","byteLength":5766228}],"materials":[{"pbrMetallicRoughness":{"baseColorFactor":[1.0,1.0,1.0,1.0],"baseColorTexture":{"index":0,"texCoord":0},"metallicFactor":0.0,"roughnessFactor":0.9},"emissiveFactor":[0.0,0.0,0.0],"alphaMode":"BLEND","name":"Material #659"},{"pbrMetallicRoughness":{"baseColorFactor":[1.0,1.0,1.0,1.0],"baseColorTexture":{"index":1,"texCoord":0},"metallicFactor":0.0,"roughnessFactor":0.9},"emissiveFactor":[0.0,0.0,0.0],"alphaMode":"BLEND","name":"Material #660"},{"pbrMetallicRoughness":{"baseColorFactor":[1.0,1.0,1.0,1.0],"baseColorTexture":{"index":2,"texCoord":0},"metallicFactor":0.0,"roughnessFactor":0.9},"emissiveFactor":[0.0,0.0,0.0],"alphaMode":"BLEND","doubleSided":true,"name":"Material #661"}],"textures":[{"sampler":0,"source":0,"name":"T_Boss_BaseColor_Lighted.png"},{"sampler":0,"source":1,"name":"T_Boss_02_BaseColor.png"},{"sampler":0,"source":2,"name":"T_Feather_Base_Color.png"}],"images":[{"uri":"T_Boss_BaseColor_Lighted.png"},{"uri":"T_Boss_02_BaseColor.png"},{"uri":"T_Feather_Base_Color.png"}],"samplers":[{"magFilter":9729,"minFilter":9987,"wrapS":10497,"wrapT":10497}]}