{"asset":{"version":"2.0","generator":"babylon.js glTF exporter for 3ds max 2015 v1.3.32"},"scene":0,"scenes":[{"nodes":[0,1,2,3,4,5,6,7],"extensions":{}}],"nodes":[{"mesh":0,"translation":[0.0,0.0,0.0],"rotation":[0.0,0.0,0.0,1.0],"scale":[1.5,1.5,1.5],"name":"BodyZone"},{"mesh":1,"translation":[0.0,0.0,0.0],"rotation":[0.0,0.0,0.0,1.0],"scale":[1.5,1.5,1.5],"name":"RFLegZone"},{"mesh":2,"translation":[0.0,0.0,0.0],"rotation":[0.0,0.0,0.0,1.0],"scale":[1.5,1.5,1.5],"name":"LFLegZone"},{"mesh":3,"translation":[0.0,0.0,0.0],"rotation":[0.0,0.0,0.0,1.0],"scale":[1.5,1.5,1.5],"name":"LBLegZone"},{"mesh":4,"translation":[0.0,0.0,0.0],"rotation":[0.0,0.0,0.0,1.0],"scale":[1.5,1.5,1.5],"name":"RBLegZone"},{"mesh":5,"translation":[0.0,0.0,0.0],"rotation":[0.0,0.0,0.0,1.0],"scale":[1.5,1.5,1.5],"name":"HeadZone"},{"mesh":6,"translation":[0.0,0.0,0.0],"rotation":[0.0,0.0,0.0,1.0],"scale":[1.5,1.5,1.5],"name":"TailZone"},{"translation":[0.0,0.0,0.0],"rotation":[0.0,0.0,0.0,1.0],"scale":[1.0,1.0,1.0],"name":"Default light"}],"meshes":[{"primitives":[{"attributes":{"POSITION":1,"NORMAL":2,"TEXCOORD_0":3},"indices":0,"mode":4,"material":0}],"name":"BodyZone"},{"primitives":[{"attributes":{"POSITION":5,"NORMAL":6,"TEXCOORD_0":7},"indices":4,"mode":4,"material":0}],"name":"RFLegZone"},{"primitives":[{"attributes":{"POSITION":9,"NORMAL":10,"TEXCOORD_0":11},"indices":8,"mode":4,"material":0}],"name":"LFLegZone"},{"primitives":[{"attributes":{"POSITION":13,"NORMAL":14,"TEXCOORD_0":15},"indices":12,"mode":4,"material":0}],"name":"LBLegZone"},{"primitives":[{"attributes":{"POSITION":17,"NORMAL":18,"TEXCOORD_0":19},"indices":16,"mode":4,"material":0}],"name":"RBLegZone"},{"primitives":[{"attributes":{"POSITION":21,"NORMAL":22,"TEXCOORD_0":23},"indices":20,"mode":4,"material":0}],"name":"HeadZone"},{"primitives":[{"attributes":{"POSITION":25,"NORMAL":26,"TEXCOORD_0":27},"indices":24,"mode":4,"material":0}],"name":"TailZone"}],"accessors":[{"bufferView":0,"componentType":5123,"count":7284,"type":"SCALAR","name":"accessorIndices"},{"bufferView":1,"componentType":5126,"count":7284,"max":[157.633667,492.923645,355.968842],"min":[-157.633667,202.070969,-253.45549],"type":"VEC3","name":"accessorPositions"},{"bufferView":1,"byteOffset":87408,"componentType":5126,"count":7284,"type":"VEC3","name":"accessorNormals"},{"bufferView":2,"componentType":5126,"count":7284,"type":"VEC2","name":"accessorUVs"},{"bufferView":0,"byteOffset":14568,"componentType":5123,"count":20160,"type":"SCALAR","name":"accessorIndices"},{"bufferView":1,"byteOffset":174816,"componentType":5126,"count":20160,"max":[-59.87579,501.83313,292.151184],"min":[-193.963058,-7.933716,52.4667168],"type":"VEC3","name":"accessorPositions"},{"bufferView":1,"byteOffset":416736,"componentType":5126,"count":20160,"type":"VEC3","name":"accessorNormals"},{"bufferView":2,"byteOffset":58272,"componentType":5126,"count":20160,"type":"VEC2","name":"accessorUVs"},{"bufferView":0,"byteOffset":54888,"componentType":5123,"count":20160,"type":"SCALAR","name":"accessorIndices"},{"bufferView":1,"byteOffset":658656,"componentType":5126,"count":20160,"max":[193.963058,501.83313,292.151184],"min":[59.87579,-7.933716,52.4667168],"type":"VEC3","name":"accessorPositions"},{"bufferView":1,"byteOffset":900576,"componentType":5126,"count":20160,"type":"VEC3","name":"accessorNormals"},{"bufferView":2,"byteOffset":219552,"componentType":5126,"count":20160,"type":"VEC2","name":"accessorUVs"},{"bufferView":0,"byteOffset":95208,"componentType":5123,"count":23022,"type":"SCALAR","name":"accessorIndices"},{"bufferView":1,"byteOffset":1142496,"componentType":5126,"count":23022,"max":[111.875206,343.365173,-145.186523],"min":[1.661218,0.500793457,-319.91272],"type":"VEC3","name":"accessorPositions"},{"bufferView":1,"byteOffset":1418760,"componentType":5126,"count":23022,"type":"VEC3","name":"accessorNormals"},{"bufferView":2,"byteOffset":380832,"componentType":5126,"count":23022,"type":"VEC2","name":"accessorUVs"},{"bufferView":0,"byteOffset":141252,"componentType":5123,"count":23340,"type":"SCALAR","name":"accessorIndices"},{"bufferView":1,"byteOffset":1695024,"componentType":5126,"count":23340,"max":[2.60414362,343.365173,-145.186523],"min":[-111.875206,0.500793457,-319.91272],"type":"VEC3","name":"accessorPositions"},{"bufferView":1,"byteOffset":1975104,"componentType":5126,"count":23340,"type":"VEC3","name":"accessorNormals"},{"bufferView":2,"byteOffset":565008,"componentType":5126,"count":23340,"type":"VEC2","name":"accessorUVs"},{"bufferView":0,"byteOffset":187932,"componentType":5123,"count":8754,"type":"SCALAR","name":"accessorIndices"},{"bufferView":1,"byteOffset":2255184,"componentType":5126,"count":8754,"max":[121.24675,495.335938,674.0146],"min":[-121.24675,73.191,280.8435],"type":"VEC3","name":"accessorPositions"},{"bufferView":1,"byteOffset":2360232,"componentType":5126,"count":8754,"type":"VEC3","name":"accessorNormals"},{"bufferView":2,"byteOffset":751728,"componentType":5126,"count":8754,"type":"VEC2","name":"accessorUVs"},{"bufferView":0,"byteOffset":205440,"componentType":5123,"count":11736,"type":"SCALAR","name":"accessorIndices"},{"bufferView":1,"byteOffset":2465280,"componentType":5126,"count":11736,"max":[76.56188,384.144653,-224.228012],"min":[-76.56188,239.284637,-1166.77588],"type":"VEC3","name":"accessorPositions"},{"bufferView":1,"byteOffset":2606112,"componentType":5126,"count":11736,"type":"VEC3","name":"accessorNormals"},{"bufferView":2,"byteOffset":821760,"componentType":5126,"count":11736,"type":"VEC2","name":"accessorUVs"}],"bufferViews":[{"buffer":0,"byteLength":228912,"name":"bufferViewScalar"},{"buffer":0,"byteOffset":228912,"byteLength":2746944,"byteStride":12,"name":"bufferViewFloatVec3"},{"buffer":0,"byteOffset":2975856,"byteLength":915648,"byteStride":8,"name":"bufferViewFloatVec2"}],"buffers":[{"uri":"Boss_Zones.bin","byteLength":3891504}],"materials":[{"pbrMetallicRoughness":{"baseColorFactor":[0.6125001,0.6125001,0.6125001,1.0],"metallicFactor":0.0,"roughnessFactor":0.9},"emissiveFactor":[0.0,0.0,0.0],"alphaMode":"OPAQUE","name":"_Sm_Bosswire_006135058"}]}