{"asset":{"version":"2.0","generator":"babylon.js glTF exporter for 3ds max 2019 v1.3.33"},"scene":0,"scenes":[{"nodes":[0,1,2,3,4,5,6],"extensions":{}}],"nodes":[{"mesh":0,"translation":[0.0,0.0,0.0],"rotation":[7.450581E-09,-2.220446E-16,-2.98023224E-08,1.0],"scale":[0.09000201,0.09000201,0.09000201],"name":"RFLegZone_Pin"},{"mesh":1,"translation":[0.0,0.0,0.0],"rotation":[7.450581E-09,0.0,0.0,1.0],"scale":[0.09000201,0.09000201,0.09000201],"name":"RBLegZone_Pin"},{"mesh":2,"translation":[0.0,0.0,0.0],"rotation":[0.0,0.0,0.0,1.0],"scale":[0.09000201,0.09000201,0.09000201],"name":"TailZone_Pin"},{"mesh":3,"translation":[0.0,0.0,0.0],"rotation":[-1.77635684E-15,2.98023224E-08,-5.96046448E-08,1.0],"scale":[0.09000201,0.09000201,0.09000201],"name":"LFLegZone_Pin"},{"mesh":4,"translation":[0.0,0.0,0.0],"rotation":[0.0,3.72529E-09,0.0,1.0],"scale":[0.09000201,0.09000201,0.09000201],"name":"LBLegZone_Pin"},{"mesh":5,"translation":[0.0,0.0,0.0],"rotation":[1.44355E-08,1.53668225E-08,-2.21827764E-16,1.0],"scale":[0.09000201,0.09000201,0.09000201],"name":"ChestZone_Pin"},{"translation":[0.0,0.0,0.0],"rotation":[0.0,0.0,0.0,1.0],"scale":[1.0,1.0,1.0],"name":"Default light"}],"meshes":[{"primitives":[{"attributes":{"POSITION":1,"NORMAL":2,"TEXCOORD_0":3},"indices":0,"mode":4,"material":0}],"name":"RFLegZone_Pin"},{"primitives":[{"attributes":{"POSITION":5,"NORMAL":6,"TEXCOORD_0":7},"indices":4,"mode":4,"material":0}],"name":"RBLegZone_Pin"},{"primitives":[{"attributes":{"POSITION":9,"NORMAL":10,"TEXCOORD_0":11},"indices":8,"mode":4,"material":0}],"name":"TailZone_Pin"},{"primitives":[{"attributes":{"POSITION":13,"NORMAL":14,"TEXCOORD_0":15},"indices":12,"mode":4,"material":0}],"name":"LFLegZone_Pin"},{"primitives":[{"attributes":{"POSITION":17,"NORMAL":18,"TEXCOORD_0":19},"indices":16,"mode":4,"material":0}],"name":"LBLegZone_Pin"},{"primitives":[{"attributes":{"POSITION":21,"NORMAL":22,"TEXCOORD_0":23},"indices":20,"mode":4,"material":0}],"name":"ChestZone_Pin"}],"accessors":[{"bufferView":0,"componentType":5123,"count":2124,"type":"SCALAR","name":"accessorIndices"},{"bufferView":1,"componentType":5126,"count":2124,"max":[695.5967,804.7246,-224.033951],"min":[44.203064,357.291229,-335.00235],"type":"VEC3","name":"accessorPositions"},{"bufferView":1,"byteOffset":25488,"componentType":5126,"count":2124,"type":"VEC3","name":"accessorNormals"},{"bufferView":2,"componentType":5126,"count":2124,"type":"VEC2","name":"accessorUVs"},{"bufferView":0,"byteOffset":4248,"componentType":5123,"count":2124,"type":"SCALAR","name":"accessorIndices"},{"bufferView":1,"byteOffset":50976,"componentType":5126,"count":2124,"max":[557.528564,787.8562,426.904175],"min":[-117.582787,383.752258,315.93573],"type":"VEC3","name":"accessorPositions"},{"bufferView":1,"byteOffset":76464,"componentType":5126,"count":2124,"type":"VEC3","name":"accessorNormals"},{"bufferView":2,"byteOffset":16992,"componentType":5126,"count":2124,"type":"VEC2","name":"accessorUVs"},{"bufferView":0,"byteOffset":8496,"componentType":5123,"count":2124,"type":"SCALAR","name":"accessorIndices"},{"bufferView":1,"byteOffset":101952,"componentType":5126,"count":2124,"max":[38.3652763,1025.9325,1056.97852],"min":[-64.5630951,270.396362,882.225],"type":"VEC3","name":"accessorPositions"},{"bufferView":1,"byteOffset":127440,"componentType":5126,"count":2124,"type":"VEC3","name":"accessorNormals"},{"bufferView":2,"byteOffset":33984,"componentType":5126,"count":2124,"type":"VEC2","name":"accessorUVs"},{"bufferView":0,"byteOffset":12744,"componentType":5123,"count":2124,"type":"SCALAR","name":"accessorIndices"},{"bufferView":1,"byteOffset":152928,"componentType":5126,"count":2124,"max":[43.98138,777.95105,-224.033966],"min":[-673.196838,443.267059,-335.0028],"type":"VEC3","name":"accessorPositions"},{"bufferView":1,"byteOffset":178416,"componentType":5126,"count":2124,"type":"VEC3","name":"accessorNormals"},{"bufferView":2,"byteOffset":50976,"componentType":5126,"count":2124,"type":"VEC2","name":"accessorUVs"},{"bufferView":0,"byteOffset":16992,"componentType":5123,"count":2124,"type":"SCALAR","name":"accessorIndices"},{"bufferView":1,"byteOffset":203904,"componentType":5126,"count":2124,"max":[130.231155,716.055664,410.898041],"min":[-583.7759,365.4982,331.3263],"type":"VEC3","name":"accessorPositions"},{"bufferView":1,"byteOffset":229392,"componentType":5126,"count":2124,"type":"VEC3","name":"accessorNormals"},{"bufferView":2,"byteOffset":67968,"componentType":5126,"count":2124,"type":"VEC2","name":"accessorUVs"},{"bufferView":0,"byteOffset":21240,"componentType":5123,"count":2124,"type":"SCALAR","name":"accessorIndices"},{"bufferView":1,"byteOffset":254880,"componentType":5126,"count":2124,"max":[102.07222,1208.98486,339.2555],"min":[-62.6671867,510.331055,4.776916],"type":"VEC3","name":"accessorPositions"},{"bufferView":1,"byteOffset":280368,"componentType":5126,"count":2124,"type":"VEC3","name":"accessorNormals"},{"bufferView":2,"byteOffset":84960,"componentType":5126,"count":2124,"type":"VEC2","name":"accessorUVs"}],"bufferViews":[{"buffer":0,"byteLength":25488,"name":"bufferViewScalar"},{"buffer":0,"byteOffset":25488,"byteLength":305856,"byteStride":12,"name":"bufferViewFloatVec3"},{"buffer":0,"byteOffset":331344,"byteLength":101952,"byteStride":8,"name":"bufferViewFloatVec2"}],"buffers":[{"uri":"exportViewers_24mars.bin","byteLength":433296}],"materials":[{"pbrMetallicRoughness":{"baseColorFactor":[1.0,1.0,1.0,1.0],"baseColorTexture":{"index":0,"texCoord":0},"metallicFactor":0.0,"roughnessFactor":0.9},"emissiveFactor":[0.0,0.0,0.0],"alphaMode":"BLEND","name":"Material #110"}],"textures":[{"sampler":0,"source":0,"name":"T_Needle_BaseColor.png"}],"images":[{"uri":"T_Needle_BaseColor.png"}],"samplers":[{"magFilter":9729,"minFilter":9987,"wrapS":10497,"wrapT":10497}]}