{"asset":{"version":"2.0","generator":"babylon.js glTF exporter for 3ds max 2015 v1.3.33"},"scene":0,"scenes":[{"nodes":[0,1,2,3,4,5,6,7,8,9,10,11,12,13,14],"extensions":{}}],"nodes":[{"mesh":0,"translation":[0.0,0.0,0.0],"rotation":[7.450581E-09,-2.220446E-16,-2.98023224E-08,1.0],"scale":[0.09000201,0.09000201,0.09000201],"name":"RFLegZone_Pin"},{"mesh":1,"translation":[0.0,0.0,0.0],"rotation":[7.450581E-09,0.0,0.0,1.0],"scale":[0.09000201,0.09000201,0.09000201],"name":"RBLegZone_Pin"},{"mesh":2,"translation":[0.0,0.0,0.0],"rotation":[0.0,0.0,0.0,1.0],"scale":[0.09000201,0.09000201,0.09000201],"name":"TailZone_Pin"},{"mesh":3,"translation":[0.0,0.0,0.0],"rotation":[-1.77635684E-15,2.98023224E-08,-5.96046448E-08,1.0],"scale":[0.09000201,0.09000201,0.09000201],"name":"LFLegZone_Pin"},{"mesh":4,"translation":[0.0,0.0,0.0],"rotation":[0.0,3.72529E-09,0.0,1.0],"scale":[0.09000201,0.09000201,0.09000201],"name":"LBLegZone_Pin"},{"mesh":5,"translation":[0.0,0.0,0.0],"rotation":[1.44355E-08,1.53668225E-08,-2.21827764E-16,1.0],"scale":[0.09000201,0.09000201,0.09000201],"name":"ChestZone_Pin"},{"mesh":6,"translation":[0.0,0.0,0.0],"rotation":[0.0,-1.0,0.0,-7.54979E-08],"scale":[1.0,1.0,1.0],"name":"NoZone_Plumes"},{"mesh":7,"translation":[0.0,0.0,0.0],"rotation":[0.0,-1.0,0.0,-7.54979E-08],"scale":[1.0,1.0,1.0],"name":"NoZone_Bones"},{"mesh":8,"translation":[0.0,0.0,0.0],"rotation":[0.0,-1.0,0.0,-7.54979E-08],"scale":[1.0,1.0,1.0],"name":"LBLegZone"},{"mesh":9,"translation":[0.0,0.0,0.4926834],"rotation":[0.0,-1.0,0.0,-7.54979E-08],"scale":[1.0,1.0,1.0],"name":"RBLegZone"},{"mesh":10,"translation":[0.0,0.0,0.0],"rotation":[0.0,-1.0,0.0,-7.54979E-08],"scale":[1.0,1.0,1.0],"name":"TailZone"},{"mesh":11,"translation":[0.0,0.0,0.0],"rotation":[0.0,-1.0,0.0,-7.54979E-08],"scale":[1.0,1.0,1.0],"name":"LFLegZone"},{"mesh":12,"translation":[0.0,0.0,0.0],"rotation":[0.0,-1.0,0.0,-7.54979E-08],"scale":[1.0,1.0,1.0],"name":"RFLegZone"},{"mesh":13,"translation":[0.0,0.0,0.0],"rotation":[0.0,-1.0,0.0,-7.54979E-08],"scale":[1.0,1.0,1.0],"name":"ChestZone"},{"translation":[0.0,0.0,0.0],"rotation":[0.0,0.0,0.0,1.0],"scale":[1.0,1.0,1.0],"name":"Default light"}],"meshes":[{"primitives":[{"attributes":{"POSITION":1,"NORMAL":2,"TEXCOORD_0":3},"indices":0,"mode":4,"material":0}],"name":"RFLegZone_Pin"},{"primitives":[{"attributes":{"POSITION":5,"NORMAL":6,"TEXCOORD_0":7},"indices":4,"mode":4,"material":0}],"name":"RBLegZone_Pin"},{"primitives":[{"attributes":{"POSITION":9,"NORMAL":10,"TEXCOORD_0":11},"indices":8,"mode":4,"material":0}],"name":"TailZone_Pin"},{"primitives":[{"attributes":{"POSITION":13,"NORMAL":14,"TEXCOORD_0":15},"indices":12,"mode":4,"material":0}],"name":"LFLegZone_Pin"},{"primitives":[{"attributes":{"POSITION":17,"NORMAL":18,"TEXCOORD_0":19},"indices":16,"mode":4,"material":0}],"name":"LBLegZone_Pin"},{"primitives":[{"attributes":{"POSITION":21,"NORMAL":22,"TEXCOORD_0":23},"indices":20,"mode":4,"material":0}],"name":"ChestZone_Pin"},{"primitives":[{"attributes":{"POSITION":25,"NORMAL":26,"TEXCOORD_0":27},"indices":24,"mode":4,"material":1}],"name":"NoZone_Plumes"},{"primitives":[{"attributes":{"POSITION":29,"NORMAL":30,"TEXCOORD_0":31},"indices":28,"mode":4,"material":2}],"name":"NoZone_Bones"},{"primitives":[{"attributes":{"POSITION":33,"NORMAL":34,"TEXCOORD_0":35},"indices":32,"mode":4,"material":1}],"name":"LBLegZone"},{"primitives":[{"attributes":{"POSITION":37,"NORMAL":38,"TEXCOORD_0":39},"indices":36,"mode":4,"material":1}],"name":"RBLegZone"},{"primitives":[{"attributes":{"POSITION":41,"NORMAL":42,"TEXCOORD_0":43},"indices":40,"mode":4,"material":1}],"name":"TailZone"},{"primitives":[{"attributes":{"POSITION":45,"NORMAL":46,"TEXCOORD_0":47},"indices":44,"mode":4,"material":1}],"name":"LFLegZone"},{"primitives":[{"attributes":{"POSITION":49,"NORMAL":50,"TEXCOORD_0":51},"indices":48,"mode":4,"material":1}],"name":"RFLegZone"},{"primitives":[{"attributes":{"POSITION":53,"NORMAL":54,"TEXCOORD_0":55},"indices":52,"mode":4,"material":1}],"name":"ChestZone"}],"accessors":[{"bufferView":0,"componentType":5123,"count":2124,"type":"SCALAR","name":"accessorIndices"},{"bufferView":1,"componentType":5126,"count":2124,"max":[695.5967,804.7246,-224.033951],"min":[44.203064,357.291229,-335.00235],"type":"VEC3","name":"accessorPositions"},{"bufferView":1,"byteOffset":25488,"componentType":5126,"count":2124,"type":"VEC3","name":"accessorNormals"},{"bufferView":2,"componentType":5126,"count":2124,"type":"VEC2","name":"accessorUVs"},{"bufferView":0,"byteOffset":4248,"componentType":5123,"count":2124,"type":"SCALAR","name":"accessorIndices"},{"bufferView":1,"byteOffset":50976,"componentType":5126,"count":2124,"max":[557.528564,758.3747,426.904175],"min":[-117.582787,354.270721,315.93573],"type":"VEC3","name":"accessorPositions"},{"bufferView":1,"byteOffset":76464,"componentType":5126,"count":2124,"type":"VEC3","name":"accessorNormals"},{"bufferView":2,"byteOffset":16992,"componentType":5126,"count":2124,"type":"VEC2","name":"accessorUVs"},{"bufferView":0,"byteOffset":8496,"componentType":5123,"count":2124,"type":"SCALAR","name":"accessorIndices"},{"bufferView":1,"byteOffset":101952,"componentType":5126,"count":2124,"max":[38.3652763,1025.9325,961.983948],"min":[-64.5630951,270.396362,787.230469],"type":"VEC3","name":"accessorPositions"},{"bufferView":1,"byteOffset":127440,"componentType":5126,"count":2124,"type":"VEC3","name":"accessorNormals"},{"bufferView":2,"byteOffset":33984,"componentType":5126,"count":2124,"type":"VEC2","name":"accessorUVs"},{"bufferView":0,"byteOffset":12744,"componentType":5123,"count":2124,"type":"SCALAR","name":"accessorIndices"},{"bufferView":1,"byteOffset":152928,"componentType":5126,"count":2124,"max":[43.98138,777.95105,-224.033966],"min":[-673.196838,443.267059,-335.0028],"type":"VEC3","name":"accessorPositions"},{"bufferView":1,"byteOffset":178416,"componentType":5126,"count":2124,"type":"VEC3","name":"accessorNormals"},{"bufferView":2,"byteOffset":50976,"componentType":5126,"count":2124,"type":"VEC2","name":"accessorUVs"},{"bufferView":0,"byteOffset":16992,"componentType":5123,"count":2124,"type":"SCALAR","name":"accessorIndices"},{"bufferView":1,"byteOffset":203904,"componentType":5126,"count":2124,"max":[130.231155,686.5741,410.898041],"min":[-583.7759,336.016663,331.3263],"type":"VEC3","name":"accessorPositions"},{"bufferView":1,"byteOffset":229392,"componentType":5126,"count":2124,"type":"VEC3","name":"accessorNormals"},{"bufferView":2,"byteOffset":67968,"componentType":5126,"count":2124,"type":"VEC2","name":"accessorUVs"},{"bufferView":0,"byteOffset":21240,"componentType":5123,"count":2124,"type":"SCALAR","name":"accessorIndices"},{"bufferView":1,"byteOffset":254880,"componentType":5126,"count":2124,"max":[155.2363,1208.98486,163.650253],"min":[-9.50311,510.331055,-170.828339],"type":"VEC3","name":"accessorPositions"},{"bufferView":1,"byteOffset":280368,"componentType":5126,"count":2124,"type":"VEC3","name":"accessorNormals"},{"bufferView":2,"byteOffset":84960,"componentType":5126,"count":2124,"type":"VEC2","name":"accessorUVs"},{"bufferView":0,"byteOffset":25488,"componentType":5123,"count":12108,"type":"SCALAR","name":"accessorIndices"},{"bufferView":1,"byteOffset":305856,"componentType":5126,"count":12108,"max":[28.3657017,86.881,69.10621],"min":[-27.6545982,21.6896,2.93741059],"type":"VEC3","name":"accessorPositions"},{"bufferView":1,"byteOffset":451152,"componentType":5126,"count":12108,"type":"VEC3","name":"accessorNormals"},{"bufferView":2,"byteOffset":101952,"componentType":5126,"count":12108,"type":"VEC2","name":"accessorUVs"},{"bufferView":0,"byteOffset":49704,"componentType":5123,"count":38412,"type":"SCALAR","name":"accessorIndices"},{"bufferView":1,"byteOffset":596448,"componentType":5126,"count":38412,"max":[31.9093037,83.431,27.95781],"min":[-31.909296,35.5786,-57.60759],"type":"VEC3","name":"accessorPositions"},{"bufferView":1,"byteOffset":1057392,"componentType":5126,"count":38412,"type":"VEC3","name":"accessorNormals"},{"bufferView":2,"byteOffset":198816,"componentType":5126,"count":38412,"type":"VEC2","name":"accessorUVs"},{"bufferView":0,"byteOffset":126528,"componentType":5123,"count":1296,"type":"SCALAR","name":"accessorIndices"},{"bufferView":1,"byteOffset":1518336,"componentType":5126,"count":1296,"max":[22.8646011,49.1327,-18.5097923],"min":[0.06860258,8.5595,-41.30569],"type":"VEC3","name":"accessorPositions"},{"bufferView":1,"byteOffset":1533888,"componentType":5126,"count":1296,"type":"VEC3","name":"accessorNormals"},{"bufferView":2,"byteOffset":506112,"componentType":5126,"count":1296,"type":"VEC2","name":"accessorUVs"},{"bufferView":0,"byteOffset":129120,"componentType":5123,"count":1296,"type":"SCALAR","name":"accessorIndices"},{"bufferView":1,"byteOffset":1549440,"componentType":5126,"count":1296,"max":[-0.06869742,49.1327,-18.5097885],"min":[-22.8645973,8.5595,-41.30569],"type":"VEC3","name":"accessorPositions"},{"bufferView":1,"byteOffset":1564992,"componentType":5126,"count":1296,"type":"VEC3","name":"accessorNormals"},{"bufferView":2,"byteOffset":516480,"componentType":5126,"count":1296,"type":"VEC2","name":"accessorUVs"},{"bufferView":0,"byteOffset":131712,"componentType":5123,"count":1728,"type":"SCALAR","name":"accessorIndices"},{"bufferView":1,"byteOffset":1580544,"componentType":5126,"count":1728,"max":[8.834802,55.9908,-34.401886],"min":[-8.834798,32.8465,-106.01889],"type":"VEC3","name":"accessorPositions"},{"bufferView":1,"byteOffset":1601280,"componentType":5126,"count":1728,"type":"VEC3","name":"accessorNormals"},{"bufferView":2,"byteOffset":526848,"componentType":5126,"count":1728,"type":"VEC2","name":"accessorUVs"},{"bufferView":0,"byteOffset":135168,"componentType":5123,"count":1296,"type":"SCALAR","name":"accessorIndices"},{"bufferView":1,"byteOffset":1622016,"componentType":5126,"count":1296,"max":[36.8498039,68.4431,37.83271],"min":[12.0692024,-0.1968,3.10631061],"type":"VEC3","name":"accessorPositions"},{"bufferView":1,"byteOffset":1637568,"componentType":5126,"count":1296,"type":"VEC3","name":"accessorNormals"},{"bufferView":2,"byteOffset":540672,"componentType":5126,"count":1296,"type":"VEC2","name":"accessorUVs"},{"bufferView":0,"byteOffset":137760,"componentType":5123,"count":1296,"type":"SCALAR","name":"accessorIndices"},{"bufferView":1,"byteOffset":1653120,"componentType":5126,"count":1296,"max":[-12.0691967,68.4431,37.83271],"min":[-36.8497963,-0.1968,3.106311],"type":"VEC3","name":"accessorPositions"},{"bufferView":1,"byteOffset":1668672,"componentType":5126,"count":1296,"type":"VEC3","name":"accessorNormals"},{"bufferView":2,"byteOffset":551040,"componentType":5126,"count":1296,"type":"VEC2","name":"accessorUVs"},{"bufferView":0,"byteOffset":140352,"componentType":5123,"count":1296,"type":"SCALAR","name":"accessorIndices"},{"bufferView":1,"byteOffset":1684224,"componentType":5126,"count":1296,"max":[23.8268013,72.9223,43.33501],"min":[-23.8267975,23.9619,-38.2275925],"type":"VEC3","name":"accessorPositions"},{"bufferView":1,"byteOffset":1699776,"componentType":5126,"count":1296,"type":"VEC3","name":"accessorNormals"},{"bufferView":2,"byteOffset":561408,"componentType":5126,"count":1296,"type":"VEC2","name":"accessorUVs"}],"bufferViews":[{"buffer":0,"byteLength":142944,"name":"bufferViewScalar"},{"buffer":0,"byteOffset":142944,"byteLength":1715328,"byteStride":12,"name":"bufferViewFloatVec3"},{"buffer":0,"byteOffset":1858272,"byteLength":571776,"byteStride":8,"name":"bufferViewFloatVec2"}],"buffers":[{"uri":"Boss_Plushie.bin","byteLength":2430048}],"materials":[{"pbrMetallicRoughness":{"baseColorFactor":[1.0,1.0,1.0,1.0],"baseColorTexture":{"index":0,"texCoord":0},"metallicFactor":0.0,"roughnessFactor":0.9},"emissiveFactor":[0.0,0.0,0.0],"alphaMode":"BLEND","name":"Material #110"},{"pbrMetallicRoughness":{"baseColorFactor":[1.0,1.0,1.0,1.0],"baseColorTexture":{"index":1,"texCoord":0},"metallicFactor":0.0,"roughnessFactor":0.9},"emissiveFactor":[0.0,0.0,0.0],"alphaMode":"BLEND","name":"Material #351"},{"pbrMetallicRoughness":{"baseColorFactor":[1.0,1.0,1.0,1.0],"baseColorTexture":{"index":2,"texCoord":0},"metallicFactor":0.0,"roughnessFactor":0.9},"emissiveFactor":[0.0,0.0,0.0],"alphaMode":"BLEND","name":"Material #363"}],"textures":[{"sampler":0,"source":0,"name":"T_Needle_BaseColor.png"},{"sampler":0,"source":1,"name":"T_Boss_Plushie_01__Base_Color.png"},{"sampler":0,"source":2,"name":"T_Boss_Plushie_02__Base_Color.png"}],"images":[{"uri":"T_Needle_BaseColor.png"},{"uri":"T_Boss_Plushie_01__Base_Color.png"},{"uri":"T_Boss_Plushie_02__Base_Color.png"}],"samplers":[{"magFilter":9729,"minFilter":9987,"wrapS":10497,"wrapT":10497}]}